<svg xmlns="http://www.w3.org/2000/svg" viewBox="0 0 64 64" role="img" aria-label="LLM Council">
  <defs>
    <linearGradient id="councilGradient" x1="0" y1="0" x2="1" y2="1">
      <stop offset="0%" stop-color="#0F766E" />
      <stop offset="100%" stop-color="#F59E0B" />
    </linearGradient>
  </defs>
  <rect width="64" height="64" rx="16" fill="url(#councilGradient)" />
  <g fill="#0B1411" opacity="0.18">
    <circle cx="24" cy="28" r="10" />
    <circle cx="40" cy="26" r="9" />
  </g>
  <g fill="#F8FAFC">
    <path d="M20 22h12a6 6 0 0 1 6 6v6a6 6 0 0 1-6 6h-3l-5 4v-4h-4a6 6 0 0 1-6-6v-6a6 6 0 0 1 6-6z" />
    <path d="M36 18h8a6 6 0 0 1 6 6v6a6 6 0 0 1-6 6h-2l-4 3v-3h-2a6 6 0 0 1-6-6v-2h6a8 8 0 0 1 8-8z" />
  </g>
  <g fill="#0F172A">
    <circle cx="24" cy="31" r="2" />
    <circle cx="31" cy="31" r="2" />
    <circle cx="38" cy="31" r="2" />
  </g>
</svg>
